<svg version="1.1" id="Layer_1" xmlns="http://www.w3.org/2000/svg" xmlns:xlink="http://www.w3.org/1999/xlink" x="0px" y="0px"
	 width="100%" viewBox="0 0 616 616" enable-background="new 0 0 616 616" xml:space="preserve">
<path fill="#11165F" opacity="1.000000" stroke="none" 
	d="
M578.000000,617.000000 
	C385.333374,617.000000 193.166733,617.000000 1.000077,617.000000 
	C1.000051,411.666748 1.000051,206.333481 1.000026,1.000160 
	C206.333237,1.000107 411.666473,1.000107 616.999756,1.000053 
	C616.999878,206.333191 616.999878,411.666382 616.999939,616.999756 
	C604.166687,617.000000 591.333313,617.000000 578.000000,617.000000 
M294.916046,307.073792 
	C294.916046,307.073792 294.920593,307.211426 294.630432,306.720459 
	C294.281067,306.599091 293.931702,306.477753 293.731995,306.324341 
	C293.731995,306.324341 293.688141,306.470947 293.531219,305.834503 
	C292.959442,305.597168 292.387695,305.359833 291.897736,305.094299 
	C291.897736,305.094299 291.891602,305.180603 291.848663,304.469452 
	C288.955414,297.907532 283.910248,295.604340 276.480682,296.467590 
	C275.530029,296.454956 274.579376,296.442352 273.756989,296.372406 
	C273.756989,296.372406 273.691650,296.496765 273.509186,295.778564 
	C270.845337,294.553223 268.181458,293.327911 264.929108,291.831909 
	C267.297668,291.108276 268.818756,290.643555 270.339844,290.178833 
	C270.257751,289.841980 270.175629,289.505127 270.093506,289.168274 
	C251.987122,289.168274 233.880737,289.168274 215.774338,289.168274 
	C215.764328,289.657349 215.754318,290.146393 215.744308,290.635468 
	C217.781525,290.843933 219.818726,291.052429 222.070114,291.282806 
	C218.997467,293.140961 216.186554,294.840851 213.159744,296.497620 
	C213.159744,296.497620 213.379288,296.481293 212.490448,296.212006 
	C210.715408,296.396698 208.923279,296.483643 207.169540,296.790222 
	C204.853378,297.195190 201.398605,297.009674 200.481720,298.414734 
	C197.411057,303.120239 192.993607,304.537170 188.059311,304.928497 
	C182.105209,305.400726 181.294296,306.083313 181.388306,312.314270 
	C181.388306,312.314270 181.425552,312.437195 180.861465,312.437439 
	C180.598541,312.689331 180.335617,312.941193 180.079285,313.093414 
	C180.079285,313.093414 180.175018,313.121887 179.341080,313.048004 
	C177.581650,313.048004 175.822220,313.048004 174.114243,313.048004 
	C173.696335,314.889313 173.343933,316.442078 172.999390,318.000000 
	C172.999390,318.000000 172.996582,317.992035 172.291367,318.018127 
	C171.538788,318.703400 170.786209,319.388672 170.016052,320.005493 
	C170.016052,320.005493 170.077942,320.039642 169.457031,320.086975 
	C168.984360,320.444153 168.511688,320.801331 168.039307,321.063599 
	C168.039307,321.063599 168.133240,321.077301 167.347748,321.121216 
	C164.811768,321.320557 162.275787,321.519897 159.327637,321.751648 
	C158.950607,324.064178 158.533920,326.619934 158.082748,329.080414 
	C158.082748,329.080414 158.174530,329.123444 157.352478,329.046967 
	C152.087723,328.477844 150.626755,332.355774 149.055130,336.039307 
	C149.055130,336.039307 149.132462,336.085632 148.279236,336.032806 
	C146.204025,336.273682 143.479675,335.777771 142.191940,336.912384 
	C139.693604,339.113678 138.002792,342.231476 135.295364,345.084686 
	C134.215729,346.428711 133.136078,347.772736 132.049469,349.038788 
	C132.049469,349.038788 132.123993,349.062714 131.492188,349.109467 
	C131.001602,349.458252 130.511032,349.807037 130.025604,350.053284 
	C130.025604,350.053284 130.127060,350.068909 129.354492,350.036438 
	C126.239044,351.029388 123.123596,352.022339 119.176788,353.004517 
	C115.059341,352.403717 114.722580,354.947205 114.998688,358.695984 
	C115.008537,359.152130 115.018394,359.608276 115.024300,359.998138 
	C115.024300,359.998138 115.080460,360.033569 114.463203,360.125702 
	C113.989105,360.478302 113.514999,360.830902 113.062119,361.067535 
	C113.062119,361.067535 113.174004,361.104614 112.291039,361.050507 
	C110.533653,361.042175 108.776268,361.033813 106.098129,361.010986 
	C102.649292,361.010986 99.200447,361.010986 95.751610,361.010986 
	C95.757706,361.435974 95.763794,361.860992 95.769890,362.285980 
	C98.511230,362.856903 101.252563,363.427856 104.195305,364.735107 
	C104.286179,364.972778 104.377060,365.210449 104.417282,365.438782 
	C104.417282,365.438782 104.369225,365.457306 103.535980,365.218231 
	C96.888908,366.344696 90.220230,367.358734 83.601097,368.630615 
	C77.493263,369.804260 70.890892,366.405304 69.836853,361.168518 
	C67.094803,360.949005 64.308296,360.725952 61.519257,360.442322 
	C61.519257,360.442322 61.465923,360.413483 61.759304,359.637085 
	C61.837662,359.091003 61.916016,358.544891 62.332226,357.234558 
	C62.547993,349.820587 62.763760,342.406647 62.975269,334.243378 
	C62.626442,332.793640 62.277615,331.343933 61.982132,329.961884 
	C61.982132,329.961884 61.897598,329.945160 62.554688,329.936249 
	C63.368500,329.625793 64.182312,329.315338 65.852135,329.002014 
	C70.986603,329.974152 71.333817,326.782776 71.713570,322.700226 
	C75.800774,321.807190 79.887985,320.914154 84.351334,320.474518 
	C84.902321,320.650146 85.453308,320.825745 86.949150,321.007568 
	C88.214058,320.933014 89.478973,320.858490 90.854881,320.717468 
	C90.854881,320.717468 90.960785,320.791809 91.118286,321.132355 
	C91.407501,321.099884 91.696724,321.067444 92.708275,320.955414 
	C93.171288,321.079987 93.634308,321.204559 94.218330,321.835236 
	C94.318336,321.958221 94.395668,322.127991 94.524910,322.190674 
	C94.647408,322.250061 94.915268,322.257935 94.964241,322.184784 
	C96.978867,319.174988 95.973167,317.540497 91.934677,316.950806 
	C90.291710,315.903656 88.648743,314.856506 86.836990,313.181824 
	C86.116692,312.889771 85.396393,312.597687 84.803688,312.273102 
	C84.803688,312.273102 84.775627,312.401733 84.533577,311.774567 
	C83.921364,311.613220 83.309143,311.451904 82.813026,311.249847 
	C82.813026,311.249847 82.797287,311.371887 82.622116,310.764099 
	C81.760651,310.175049 80.899178,309.585968 80.005333,308.161743 
	C78.886780,307.109222 77.810822,305.205322 76.642548,305.146851 
	C70.535919,304.841339 64.405869,305.004211 58.608055,305.004211 
	C60.367607,306.302765 62.173901,307.635834 63.383385,309.047333 
	C62.916122,309.388336 62.448856,309.729340 61.696465,310.257355 
	C61.696465,310.257355 61.381882,310.125793 60.610470,310.152740 
	C60.014988,310.597290 59.419506,311.041840 58.716675,311.430908 
	C58.716675,311.430908 58.833401,311.399597 57.945583,311.178528 
	C54.275925,311.952972 50.606266,312.727448 48.025494,313.272095 
	C46.122543,315.865540 45.106274,318.648407 43.201809,319.545288 
	C39.611698,321.236084 38.883007,323.755096 39.048485,327.052643 
	C39.048485,327.052643 39.133724,327.075989 38.366085,327.125580 
	C36.688328,327.764709 34.870285,328.181274 33.381226,329.119812 
	C32.356976,329.765381 31.329411,331.040558 31.092066,332.196289 
	C29.604712,339.438873 28.338991,346.726959 26.247486,353.791260 
	C25.576002,351.118164 24.904520,348.445038 24.233036,345.771942 
	C23.991396,345.792938 23.749758,345.813965 23.508118,345.834961 
	C23.508118,355.290710 23.508118,364.746460 23.508118,374.202209 
	C23.768101,374.228241 24.028086,374.254242 24.288069,374.280273 
	C24.858286,372.189697 25.428503,370.099121 26.314472,368.713318 
	C27.190388,371.802155 28.066303,374.890991 29.038048,378.687592 
	C29.407602,379.765778 29.777157,380.843964 29.728548,382.453888 
	C30.094332,385.351654 30.783352,388.252380 30.756790,391.146545 
	C30.705750,396.708099 34.582371,396.988281 38.519199,397.509460 
	C38.519199,397.509460 38.575172,397.562408 38.335640,398.333710 
	C38.802925,401.357910 38.711819,404.790344 43.068501,404.947296 
	C43.068501,404.947296 43.080101,404.863251 43.111858,405.581177 
	C44.145065,406.340088 45.178276,407.099030 46.094017,407.880615 
	C46.094017,407.880615 46.098839,407.761078 46.329067,408.277863 
	C46.627575,408.498260 46.926079,408.718658 47.665123,409.038116 
	C47.947880,409.219604 48.076298,409.477844 48.004402,410.602692 
	C48.270157,412.655487 47.918015,415.115143 48.941311,416.669098 
	C50.627056,419.229004 53.147072,421.262604 55.433838,423.390839 
	C56.211002,424.114105 57.298252,424.745209 58.326092,424.912323 
	C61.240944,425.386169 64.198303,425.598511 67.041397,425.928711 
	C67.041397,425.928711 67.041260,425.830078 67.398392,426.373932 
	C68.007927,426.526031 68.617462,426.678101 69.112854,426.865234 
	C69.112854,426.865234 69.109291,426.745850 69.399063,427.232849 
	C69.753403,427.305542 70.107742,427.378204 70.428154,427.822845 
	C70.428154,427.822845 70.507561,427.457855 70.438728,428.192017 
	C71.982292,434.991730 77.960930,432.620728 82.105629,433.904114 
	C82.105629,433.904114 82.099709,433.817413 82.169327,434.533325 
	C83.385948,434.980835 84.602577,435.428345 86.178223,436.539185 
	C87.399223,439.923462 89.701561,440.885071 93.356361,441.214478 
	C98.558670,441.683411 103.641914,443.473328 108.776024,444.698944 
	C108.706947,445.219971 108.637878,445.740967 108.568802,446.261963 
	C107.407997,446.682678 106.247185,447.103424 105.086372,447.524139 
	C105.138992,447.833862 105.191605,448.143616 105.244225,448.453339 
	C135.360489,448.453339 165.476761,448.453339 195.682831,448.453339 
	C194.036728,447.929260 192.498535,447.439545 190.960358,446.949829 
	C191.013336,446.653259 191.066330,446.356720 191.119308,446.060150 
	C195.083389,445.052673 199.047485,444.045227 203.836731,443.017548 
	C212.664703,442.040375 221.492661,441.063232 231.084259,440.001556 
	C228.504181,439.417999 226.649536,438.998535 224.794876,438.579041 
	C227.223038,436.979401 229.746719,436.827271 231.909546,435.864532 
	C234.300980,434.799957 236.361984,432.993134 238.555344,431.577667 
	C238.555344,431.577667 238.613510,431.540375 239.453140,431.794861 
	C241.310852,431.535004 243.168549,431.275177 245.681015,430.874603 
	C246.655060,429.738647 247.629105,428.602661 248.989685,427.542786 
	C248.989685,427.542786 248.599960,427.494598 249.396881,427.760223 
	C252.357773,426.851990 255.481842,424.838013 258.248474,425.246246 
	C266.037445,426.395599 271.078156,422.067352 276.711243,418.091858 
	C279.463745,416.149261 280.957947,414.208496 280.923676,410.365936 
	C280.882843,410.157898 280.842010,409.949829 280.820648,409.848175 
	C280.820648,409.848175 280.714966,409.825104 281.243439,409.681915 
	C281.486481,409.418823 281.729553,409.155731 281.968994,408.967133 
	C281.968994,408.967133 281.899078,408.941101 282.740234,408.983124 
	C287.659058,409.875397 289.016357,406.630524 289.903381,402.925934 
	C289.903381,402.925934 289.803711,402.915161 290.302490,402.718231 
	C290.529999,402.449921 290.757507,402.181610 291.131775,401.465759 
	C291.323212,401.193298 291.583069,401.029083 292.463379,400.996399 
	C292.647400,400.989075 292.831421,400.981750 293.390656,400.607178 
	C293.383667,400.268768 293.376678,399.930389 293.457764,399.385162 
	C293.457764,399.385162 293.674133,399.324310 294.298065,399.718445 
	C294.525665,399.811615 294.753265,399.904816 295.715851,400.320831 
	C302.506714,401.871674 305.633698,398.351807 304.019684,390.247253 
	C303.978699,389.785278 303.937683,389.323273 303.918823,388.939941 
	C303.918823,388.939941 303.837219,388.935944 304.332977,388.722443 
	C304.546387,388.440216 304.759796,388.157990 305.124786,387.447723 
	C305.275024,387.148041 305.517365,386.986786 306.471710,386.938751 
	C306.985901,386.636047 307.500061,386.333313 308.745453,386.117371 
	C310.362549,386.639404 311.979645,387.161438 313.730286,387.726562 
	C311.978180,389.378143 310.635834,390.643433 309.747955,391.480347 
	C312.537842,393.436218 315.228912,394.738800 317.099792,396.789612 
	C319.202362,399.094391 320.796448,400.973328 324.432587,401.383270 
	C327.535065,401.733063 330.686981,404.043732 333.255737,406.166260 
	C337.123749,409.362274 340.366577,413.302704 344.120697,416.651489 
	C349.793579,421.711761 355.481201,426.942474 364.138397,425.289398 
	C365.015564,425.121948 366.043335,425.743011 367.769135,426.002960 
	C368.537903,425.987091 369.306702,425.971191 370.021179,425.996460 
	C370.021179,425.996460 370.021973,425.928345 370.370575,426.346527 
	C370.719025,426.380096 371.067444,426.413635 371.407990,426.861298 
	C371.407990,426.861298 371.434814,426.442596 371.551117,427.146118 
	C375.028107,431.888885 380.526733,432.455902 385.566864,434.078033 
	C388.596924,435.053284 391.452240,436.571289 394.909607,438.072723 
	C393.463226,438.820984 392.789246,439.169647 392.049805,439.552185 
	C405.404877,441.541534 418.669067,443.517365 431.933289,445.493195 
	C431.891144,445.901886 431.848999,446.310577 431.806854,446.719269 
	C429.436646,446.962006 427.066406,447.204742 424.696198,447.447479 
	C424.753357,447.630493 424.810486,447.813477 424.867645,447.996490 
	C449.240295,447.996490 473.612915,447.996490 498.618103,448.540833 
	C505.170624,448.540833 511.723175,448.540833 518.275696,448.540833 
	C518.269470,448.100220 518.263245,447.659607 518.257019,447.218994 
	C516.500061,447.141998 514.743042,447.064972 513.104797,446.264832 
	C514.493225,445.222412 515.738159,443.676666 517.297058,443.232513 
	C521.880554,441.926636 526.795715,441.582184 531.181580,439.849945 
	C534.605164,438.497803 537.431946,435.634460 540.582275,433.547821 
	C540.582275,433.547821 540.604248,433.429596 541.429504,433.725708 
	C545.274902,432.873718 550.702942,434.576202 550.930847,427.930328 
	C550.930847,427.930328 550.849731,427.926270 551.319702,427.770050 
	C551.626526,427.617432 551.858582,427.388947 552.373291,426.901245 
	C552.373291,426.901245 552.774109,426.927856 553.508606,426.977661 
	C553.998230,426.992706 554.487854,427.007751 555.442688,427.486176 
	C556.314941,426.680542 557.187256,425.874878 558.528259,425.038055 
	C558.528259,425.038055 558.996399,424.998688 559.871460,425.002045 
	C562.197571,424.557617 566.177612,424.690826 566.568848,423.570648 
	C568.445740,418.197052 575.909790,417.869141 576.459961,410.659973 
	C576.769104,406.607849 582.112976,402.838226 585.437561,399.166626 
	C586.817505,397.642548 588.847351,396.706848 590.611755,395.482727 
	C592.053589,387.148132 593.533508,378.593262 595.728882,370.196075 
	C596.477356,371.904480 597.225891,373.612885 597.974365,375.321259 
	C598.954163,369.239563 599.123108,363.349792 598.778015,357.490234 
	C598.724182,356.576263 596.327820,355.800201 594.989319,354.166718 
	C593.336670,348.127411 591.684082,342.088135 590.529358,335.465942 
	C590.662476,333.552063 590.795593,331.638214 590.947144,329.459137 
	C588.906799,329.677490 587.449890,329.833435 585.421814,330.026276 
	C585.232788,330.052551 585.043823,330.078857 584.946167,330.050781 
	C584.946167,330.050781 584.903198,330.147980 584.897400,329.426666 
	C583.892700,328.296783 582.888000,327.166870 581.261536,325.725220 
	C580.479248,324.207367 579.696960,322.689484 578.873596,320.477753 
	C577.290710,318.250946 575.707886,316.024109 573.497192,312.914001 
	C572.376526,313.061890 569.980469,313.378021 567.462402,313.663849 
	C567.462402,313.663849 567.354736,313.598755 567.345825,312.920898 
	C566.755005,312.817810 566.164246,312.714722 565.649475,312.303589 
	C565.649475,312.303589 565.517761,312.592255 565.408630,311.912659 
	C564.800964,311.811462 564.193359,311.710297 564.013367,311.474426 
	C564.013367,311.474426 563.587891,311.629730 563.351013,310.845734 
	C562.312805,310.632904 561.274658,310.420105 560.168396,310.317505 
	C560.168396,310.317505 560.044617,310.279419 560.012207,309.641754 
	C560.006531,309.429077 560.000793,309.216370 560.072876,308.334808 
	C560.411377,307.336212 560.749939,306.337646 561.100098,305.304657 
	C553.936829,305.304657 547.110474,305.304657 540.633789,305.304657 
	C541.360229,306.447449 542.167786,307.717804 542.960938,309.521210 
	C542.963257,309.698883 542.965515,309.876526 542.824707,310.199280 
	C542.824707,310.199280 542.653015,310.089630 541.820435,310.092407 
	C540.997986,310.593201 540.175598,311.093994 539.308716,311.447449 
	C539.308716,311.447449 539.453064,311.500885 538.902649,311.435333 
	C538.600830,311.625488 538.299011,311.815674 538.000000,311.997559 
	C538.000000,311.997559 538.010315,312.000183 537.422791,312.129944 
	C536.954651,312.461090 536.486511,312.792236 536.053650,313.038239 
	C536.053650,313.038239 536.134583,313.082336 535.492371,313.113464 
	C535.046692,313.511932 534.601013,313.910431 534.145325,314.188599 
	C534.145325,314.188599 534.261414,314.221741 533.466248,314.100494 
	C529.777832,314.011383 528.375732,315.990967 528.537781,319.623718 
	C528.537781,319.623718 528.367737,319.693054 528.109253,319.502472 
	C528.109253,319.502472 527.783691,319.593231 527.783691,319.593231 
	C527.783691,319.593231 527.975891,319.967712 527.899841,320.604584 
	C527.934998,320.815460 527.970154,321.026337 528.195862,321.860809 
	C530.194031,321.723633 532.192993,321.459167 534.190125,321.472687 
	C540.694763,321.516724 548.430664,318.110291 551.678040,327.658356 
	C551.915771,328.357422 553.630310,328.944550 554.642151,328.920044 
	C558.305542,328.831329 559.257141,330.832642 559.008179,334.922974 
	C559.012756,342.286774 559.017395,349.650604 558.990112,357.793335 
	C557.118408,359.312500 555.246643,360.831665 553.094543,362.578369 
	C553.094543,363.513763 553.094543,365.335358 553.085571,367.066315 
	C553.085571,367.066315 553.163818,367.113068 552.304932,367.047363 
	C546.133484,367.358459 539.931396,368.181732 533.800659,367.814209 
	C529.125061,367.533875 523.400757,367.030396 520.253418,364.243134 
	C517.429077,361.741943 515.216858,360.946503 511.215424,360.995361 
	C510.430695,361.028900 509.645935,361.062439 508.945221,361.056122 
	C508.945221,361.056122 508.916718,361.144623 508.885040,360.414154 
	C506.282135,357.964874 503.893646,355.218689 501.020447,353.143707 
	C497.655334,350.713470 493.910583,348.790070 490.251129,346.792206 
	C487.179657,345.115295 483.994232,343.647095 480.938538,342.054962 
	C480.938538,342.054962 480.922760,342.138794 480.889648,341.430481 
	C477.227875,337.389465 474.236725,332.015900 469.692261,329.728760 
	C466.051270,327.896301 464.543091,325.852570 463.193054,322.680450 
	C462.887848,321.963348 461.769562,321.293457 460.933746,321.154663 
	C457.945831,320.658600 454.918427,320.400269 451.973206,320.014923 
	C451.973206,320.014923 451.957581,320.090088 451.844818,319.391174 
	C451.086182,319.084778 450.327515,318.778381 449.786743,318.249084 
	C449.786743,318.249084 449.617096,318.510590 449.505554,317.866882 
	C448.945129,317.615723 448.384705,317.364594 447.906647,317.083221 
	C447.906647,317.083221 447.894989,317.170197 447.954102,316.336609 
	C448.012238,311.338348 444.259613,313.482269 441.940674,313.050415 
	C441.940674,313.050415 441.924683,313.135162 441.886536,312.426788 
	C440.441803,310.167542 438.997070,307.908325 437.315887,305.279358 
	C434.245514,304.934601 430.543427,304.518951 426.930969,304.070679 
	C426.930969,304.070679 426.946686,304.164825 426.598907,303.628815 
	C425.999542,303.464813 425.400146,303.300781 424.907715,303.096344 
	C424.907715,303.096344 424.925262,303.209290 424.676331,302.669281 
	C424.122467,302.109802 423.568604,301.550293 423.098053,300.271912 
	C422.523956,299.187103 422.197205,297.542236 421.315918,297.152985 
	C420.093781,296.613281 418.455078,297.016785 416.112549,297.007202 
	C414.339569,297.053772 412.566620,297.100372 410.922272,297.084747 
	C410.922272,297.084747 410.966125,297.220734 410.502869,296.626801 
	C409.781464,296.448730 409.060089,296.270660 408.163818,296.186005 
	C408.163818,296.186005 408.033783,296.036346 407.667572,295.401001 
	C406.176819,294.791107 404.547485,294.388794 403.234894,293.512115 
	C401.959229,292.660095 401.008423,291.321716 399.201324,289.462830 
	C384.331329,289.462830 368.036621,289.462830 350.558350,289.462830 
	C352.631989,290.726349 353.626221,291.332184 355.318726,292.363464 
	C353.380035,293.100586 352.192474,293.552124 350.267792,294.098541 
	C343.390991,295.751434 336.514221,297.404327 329.436005,299.105621 
	C330.854034,307.440033 323.252502,303.845398 319.240509,305.668091 
	C320.216278,306.712189 320.907440,307.451721 321.617310,308.211273 
	C313.050293,314.882660 306.108521,313.776642 301.464325,304.663239 
	C300.221527,305.853394 299.108887,306.918884 297.343842,307.993500 
	C296.908966,307.989105 296.474091,307.984680 296.006470,308.006531 
	C296.006470,308.006531 296.011383,307.964935 295.695282,307.558472 
	C295.390350,307.405060 295.085449,307.251648 294.916046,307.073792 
M23.289619,378.051117 
	C23.413996,378.831787 23.538374,379.612457 23.662750,380.393127 
	C24.080826,380.266693 24.498903,380.140259 24.916981,380.013824 
	C24.514294,379.216370 24.111609,378.418915 23.289619,378.051117 
M405.505432,289.211304 
	C405.196533,289.510986 404.887665,289.810669 404.578796,290.110382 
	C404.960358,290.319397 405.341919,290.528381 405.723480,290.737396 
	C405.830933,290.268280 405.938385,289.799133 405.505432,289.211304 
M535.509033,305.738220 
	C535.797485,305.939240 536.085938,306.140228 536.374390,306.341248 
	C536.189148,306.042450 536.003967,305.743652 535.509033,305.738220 
M598.312744,349.853516 
	C598.386658,349.808289 598.460632,349.763062 598.312744,349.853516 
M247.447205,432.489136 
	C247.447205,432.489136 247.518051,432.454010 247.447205,432.489136 
z"/>
<path fill="#FEFEFE" opacity="1.000000" stroke="none" 
	d="
M578.914673,321.171600 
	C579.696960,322.689484 580.479248,324.207367 581.687988,326.190125 
	C583.044006,327.819336 583.973633,328.983643 584.903198,330.147980 
	C584.903198,330.147980 584.946167,330.050781 584.979248,330.322266 
	C585.251526,330.815857 585.490601,331.038025 585.748352,331.258240 
	C585.766968,331.256287 585.731628,331.270325 585.805725,331.625610 
	C599.244446,357.751068 596.416199,381.962921 578.383057,404.363190 
	C573.838745,410.007965 568.118103,414.705780 562.609680,419.938599 
	C559.738831,421.904022 557.196350,423.769562 554.656738,425.647461 
	C554.659546,425.659821 554.636719,425.652069 554.349487,425.721069 
	C553.632874,426.169342 553.203491,426.548584 552.774109,426.927856 
	C552.774109,426.927856 552.373291,426.901245 551.914429,426.962830 
	C551.253601,427.325043 551.051636,427.625671 550.849731,427.926270 
	C550.849731,427.926270 550.930847,427.930328 550.590820,428.013855 
	C547.035339,429.874786 543.819824,431.652191 540.604248,433.429626 
	C540.604248,433.429596 540.582275,433.547821 540.206421,433.620239 
	C505.546936,448.787048 469.844055,449.835571 433.516693,444.308533 
	C412.062042,441.044312 391.406891,434.906555 371.434814,426.442596 
	C371.434814,426.442596 371.407990,426.861298 371.221619,426.475922 
	C370.697479,426.036499 370.359711,425.982422 370.021973,425.928345 
	C370.021973,425.928345 370.021179,425.996460 369.832275,425.720123 
	C368.778229,425.253510 367.913147,425.063232 366.922729,424.553528 
	C362.867645,422.101379 358.972870,419.901031 355.001923,417.847992 
	C340.251038,410.221649 328.151855,399.169403 316.123840,387.622925 
	C315.746307,386.820190 315.436890,386.324860 315.111267,385.870453 
	C315.095093,385.911407 315.182709,385.902527 315.126831,385.632568 
	C314.803162,385.129425 314.535370,384.896240 314.252136,384.721497 
	C314.236664,384.779938 314.354248,384.751953 314.272522,384.473694 
	C313.802856,383.784332 313.414948,383.373260 313.011780,382.978668 
	C312.996521,382.995148 313.035614,382.975586 312.971924,382.668213 
	C311.031891,378.962708 309.954315,380.707184 308.981201,382.984131 
	C309.004425,382.993866 308.971375,382.955292 308.714294,383.087097 
	C308.166870,383.711945 307.876556,384.204987 307.729218,384.808197 
	C307.872192,384.918365 307.614532,384.665527 307.360474,384.821625 
	C306.688202,385.639801 306.269989,386.301849 305.851776,386.963928 
	C305.517365,386.986786 305.275024,387.148041 304.776917,387.729980 
	C304.231812,388.320129 304.034515,388.628052 303.837219,388.935944 
	C303.837219,388.935944 303.918823,388.939941 303.631714,389.009705 
	C303.125946,389.615814 302.907257,390.152161 302.829041,390.838379 
	C302.969452,390.988220 302.702972,390.675903 302.453674,390.765076 
	C302.028717,391.150787 301.853058,391.447327 301.767700,391.812012 
	C301.857971,391.880188 301.718231,391.702271 301.416290,391.834534 
	C299.319153,393.898926 297.523956,395.831024 295.793457,397.808167 
	C295.858185,397.853180 295.781647,397.715332 295.533051,397.767578 
	C295.052704,398.054718 294.820984,398.289612 294.548492,398.553894 
	C294.507721,398.583252 294.449463,398.665100 294.271088,398.705658 
	C293.864960,398.875061 293.725433,399.067749 293.674133,399.324310 
	C293.674133,399.324310 293.457764,399.385162 293.273376,399.521088 
	C293.089020,399.657013 293.000305,399.930634 292.724182,399.982513 
	C292.269165,400.347290 292.090240,400.660187 291.911346,400.973083 
	C291.583069,401.029083 291.323212,401.193298 290.790314,401.760620 
	C290.233795,402.342010 290.018738,402.628571 289.803711,402.915161 
	C289.803711,402.915161 289.903381,402.925934 289.573853,402.983551 
	C286.795898,405.007812 284.347473,406.974457 281.899078,408.941101 
	C281.899078,408.941101 281.968994,408.967133 281.696716,408.988068 
	C281.187927,409.281036 280.951447,409.553070 280.714966,409.825104 
	C280.714966,409.825104 280.820648,409.848175 280.492615,409.837006 
	C279.356140,410.469879 278.547668,411.113953 277.785065,411.776733 
	C277.830902,411.795502 277.817566,411.697327 277.522034,411.754578 
	C276.769287,412.172394 276.312042,412.532959 275.892029,412.911804 
	C275.929260,412.930054 275.932922,412.847198 275.613708,412.908142 
	C274.988770,413.262451 274.683044,413.555847 274.249451,413.822815 
	C274.121582,413.796387 274.003479,414.029358 273.693237,414.072327 
	C272.559235,414.732819 271.735474,415.350372 270.689240,415.974792 
	C270.135803,416.040771 269.929047,416.233246 269.544037,416.651215 
	C268.355438,417.293396 267.469269,417.843506 266.560852,418.421631 
	C266.538605,418.449646 266.468628,418.464508 266.176880,418.592499 
	C265.383118,419.088745 264.881165,419.457031 264.041199,419.864014 
	C258.668732,422.433350 253.634354,424.963959 248.599945,427.494568 
	C248.599960,427.494598 248.989685,427.542786 248.458801,427.607056 
	C246.633011,428.226288 245.338104,428.781311 243.717239,429.384155 
	C241.798691,430.134827 240.206100,430.837585 238.613510,431.540344 
	C238.613510,431.540375 238.555344,431.577667 238.193893,431.625671 
	C226.223602,435.124237 214.614761,438.574768 202.585693,441.992004 
	C189.334595,443.633911 176.548126,445.920410 163.663574,446.856842 
	C137.000854,448.794586 110.977455,445.369446 85.682777,435.243469 
	C84.282875,434.651367 83.191299,434.234375 82.099716,433.817383 
	C82.099709,433.817413 82.105629,433.904114 81.926956,433.615234 
	C78.001373,431.370178 74.254463,429.414032 70.507553,427.457886 
	C70.507561,427.457855 70.428154,427.822845 70.266907,427.441162 
	C69.773537,426.954956 69.441414,426.850403 69.109291,426.745850 
	C69.109291,426.745850 69.112854,426.865234 68.999786,426.577759 
	C68.271568,426.136871 67.656418,425.983459 67.041260,425.830078 
	C67.041260,425.830078 67.041397,425.928711 66.972839,425.599457 
	C60.619637,420.117737 54.335003,414.965302 48.050369,409.812836 
	C48.076298,409.477844 47.947880,409.219604 47.347038,408.716858 
	C46.718910,408.184082 46.408867,407.972595 46.098831,407.761108 
	C46.098839,407.761078 46.094017,407.880615 46.036789,407.570129 
	C45.013073,406.460846 44.046593,405.662048 43.080105,404.863251 
	C43.080101,404.863251 43.068501,404.947296 43.037842,404.589478 
	C41.529839,402.008575 40.052502,399.785492 38.575169,397.562408 
	C38.575172,397.562408 38.519199,397.509460 38.359207,397.166016 
	C35.515045,391.855774 32.830872,386.888977 30.146706,381.922150 
	C29.777157,380.843964 29.407602,379.765778 29.157269,378.041992 
	C25.794146,359.297119 29.055946,342.518982 39.133724,327.075989 
	C39.133724,327.075989 39.048485,327.052643 39.366116,326.939270 
	C44.661938,319.939636 51.343563,315.167969 58.833401,311.399597 
	C58.833401,311.399597 58.716675,311.430908 59.144157,311.379272 
	C60.175056,310.927063 60.778473,310.526428 61.381886,310.125793 
	C61.381882,310.125793 61.696465,310.257355 62.271317,310.213013 
	C69.496544,310.569733 76.146912,310.970795 82.797287,311.371887 
	C82.797287,311.371887 82.813026,311.249847 82.940216,311.510864 
	C83.636810,311.981842 84.206223,312.191772 84.775627,312.401733 
	C84.775627,312.401733 84.803688,312.273102 84.889038,312.538879 
	C85.651512,313.139587 86.328644,313.474487 87.005775,313.809387 
	C88.648743,314.856506 90.291710,315.903656 92.438477,317.346802 
	C93.327293,318.938202 93.712311,320.133667 94.097328,321.329102 
	C93.634308,321.204559 93.171288,321.079987 92.108795,320.858917 
	C91.326469,320.772186 91.143623,320.781982 90.960785,320.791809 
	C90.960785,320.791809 90.854881,320.717468 90.479294,320.467651 
	C77.011993,317.032684 67.830658,320.199005 61.897598,329.945160 
	C61.897598,329.945160 61.982132,329.961884 61.672028,330.122681 
	C60.573418,332.189606 59.784908,334.095795 58.879772,336.125977 
	C58.763142,336.250031 58.869610,336.573517 58.611702,336.830322 
	C58.061966,338.727448 57.770130,340.367828 57.339584,342.326660 
	C57.212330,343.104370 57.223785,343.563660 57.121780,344.447388 
	C58.494190,350.052429 59.980057,355.232941 61.465923,360.413483 
	C61.465923,360.413483 61.519257,360.442322 61.660637,360.775360 
	C65.690628,363.802521 69.248634,367.333496 73.532928,369.026001 
	C84.236847,373.254639 94.403404,369.471619 104.369225,365.457306 
	C104.369225,365.457306 104.417282,365.438782 104.740311,365.378357 
	C105.947655,364.849640 106.831963,364.381317 108.064911,363.879517 
	C110.000374,362.932220 111.587189,362.018433 113.174004,361.104614 
	C113.174004,361.104614 113.062119,361.067535 113.355721,361.082092 
	C114.126366,360.742279 114.603409,360.387939 115.080460,360.033569 
	C115.080460,360.033569 115.024300,359.998138 115.354301,359.936584 
	C116.837326,358.946564 117.990349,358.018066 119.114029,357.073242 
	C119.084694,357.056854 119.115723,357.116577 119.486481,357.115448 
	C123.280518,354.765869 126.703789,352.417389 130.127060,350.068909 
	C130.127060,350.068909 130.025604,350.053284 130.328873,350.027100 
	C131.129425,349.688202 131.626709,349.375458 132.123993,349.062714 
	C132.123993,349.062714 132.049469,349.038788 132.375916,348.993713 
	C134.117020,347.869324 135.531662,346.789978 137.255615,345.604309 
	C141.420761,342.360535 145.276611,339.223083 149.132462,336.085632 
	C149.132462,336.085632 149.055130,336.039307 149.395477,335.992676 
	C152.548737,333.671814 155.361633,331.397614 158.174530,329.123444 
	C158.174530,329.123444 158.082748,329.080414 158.419815,329.009399 
	C161.882339,326.318024 165.007797,323.697662 168.133240,321.077301 
	C168.133240,321.077301 168.039307,321.063599 168.342407,321.039703 
	C169.122986,320.690430 169.600464,320.365021 170.077942,320.039642 
	C170.077942,320.039642 170.016052,320.005493 170.326538,319.970245 
	C171.423538,319.287354 172.210052,318.639679 172.996582,317.992035 
	C172.996582,317.992035 172.999390,318.000000 173.329926,317.932129 
	C175.831985,316.283447 178.003494,314.702667 180.175018,313.121887 
	C180.175018,313.121887 180.079285,313.093414 180.343506,313.097595 
	C180.880341,312.880249 181.152939,312.658722 181.425537,312.437195 
	C181.425552,312.437195 181.388306,312.314270 181.738525,312.261597 
	C192.518921,306.966400 202.949097,301.723846 213.379288,296.481293 
	C213.379288,296.481293 213.159744,296.497620 213.657700,296.444519 
	C234.011963,290.226807 253.857452,290.167938 273.691650,296.496765 
	C273.691650,296.496765 273.756989,296.372406 273.920807,296.615875 
	C275.057770,297.190094 276.030945,297.520844 277.318726,298.020203 
	C282.386139,300.519409 287.138885,302.850006 291.891602,305.180603 
	C291.891602,305.180603 291.897736,305.094299 292.002747,305.368286 
	C292.634521,305.918488 293.161346,306.194733 293.688141,306.470947 
	C293.688141,306.470947 293.731995,306.324341 293.806335,306.578308 
	C294.227356,306.958618 294.573975,307.085022 294.920593,307.211426 
	C294.920593,307.211426 294.916046,307.073792 294.969604,307.330750 
	C295.352600,307.713440 295.681976,307.839203 296.011383,307.964935 
	C296.011383,307.964935 296.006470,308.006531 296.166138,308.234711 
	C296.802979,308.733856 297.280182,309.004822 297.773956,309.221130 
	C297.790558,309.166443 297.688477,309.217773 297.806274,309.469421 
	C298.252136,309.882324 298.580200,310.043549 298.913513,310.146423 
	C298.918762,310.088074 298.802185,310.099396 298.896851,310.365417 
	C299.308655,310.816162 299.625763,311.000885 300.066528,311.472595 
	C301.434082,312.848419 302.677917,313.937256 304.055725,315.333191 
	C305.437775,316.478577 306.685913,317.316864 308.024902,318.471344 
	C309.476654,319.964539 310.063507,323.391327 312.850067,320.264893 
	C323.333649,308.502655 336.513794,300.892151 351.543396,295.447601 
	C360.063751,294.252350 368.211853,292.100677 376.299927,292.306549 
	C386.902649,292.576416 397.458038,294.706421 408.033783,296.036346 
	C408.033783,296.036346 408.163818,296.186005 408.493317,296.422455 
	C409.537262,296.846191 410.251678,297.033447 410.966125,297.220734 
	C410.966125,297.220734 410.922272,297.084747 411.090546,297.386322 
	C413.733887,298.614441 416.208923,299.541016 418.773682,300.364014 
	C418.863403,300.260468 418.642273,300.422272 418.894043,300.654114 
	C421.072327,301.660370 422.998779,302.434814 424.925262,303.209290 
	C424.925262,303.209290 424.907715,303.096344 425.038605,303.368591 
	C425.761902,303.815521 426.354279,303.990173 426.946686,304.164825 
	C426.946686,304.164825 426.930969,304.070679 427.087280,304.365997 
	C432.137268,307.485931 437.030975,310.310547 441.924683,313.135162 
	C441.924683,313.135162 441.940674,313.050415 442.066376,313.359985 
	C444.093048,314.836426 445.994019,316.003296 447.894989,317.170166 
	C447.894989,317.170197 447.906647,317.083221 448.000671,317.358368 
	C448.602173,317.925873 449.109650,318.218231 449.617096,318.510590 
	C449.617096,318.510590 449.786743,318.249084 449.863647,318.590424 
	C450.612915,319.317871 451.285248,319.703979 451.957581,320.090088 
	C451.957581,320.090088 451.973206,320.014923 452.102600,320.337128 
	C455.513428,323.093323 458.805237,325.513458 462.074066,327.964233 
	C468.363831,332.679932 474.640594,337.412964 480.922760,342.138794 
	C480.922760,342.138794 480.938538,342.054962 481.055176,342.370422 
	C490.420135,348.838776 499.668427,354.991699 508.916718,361.144623 
	C508.916718,361.144623 508.945221,361.056122 509.094116,361.356750 
	C510.069000,362.018494 510.894928,362.379608 511.985931,362.942505 
	C518.861572,365.431000 525.349670,368.221954 532.116333,369.866516 
	C539.280884,371.607788 546.595459,371.420715 553.163818,367.113068 
	C553.163818,367.113068 553.085571,367.066315 553.430359,367.043396 
	C559.942200,363.230927 563.720947,357.735901 564.725464,350.613281 
	C567.146667,333.445190 555.804932,317.245239 538.195618,319.077393 
	C534.761108,319.434753 531.400208,320.499023 528.005310,321.237244 
	C527.970154,321.026337 527.934998,320.815460 528.083191,320.285400 
	C528.266541,319.966187 528.367737,319.693054 528.367737,319.693054 
	C528.367737,319.693054 528.537781,319.623718 528.830566,319.352295 
	C530.835999,317.461151 532.548706,315.841431 534.261414,314.221741 
	C534.261414,314.221741 534.145325,314.188599 534.449402,314.182129 
	C535.213867,313.811218 535.674255,313.446777 536.134583,313.082336 
	C536.134583,313.082336 536.053650,313.038239 536.329407,313.032318 
	C537.073547,312.684326 537.541931,312.342255 538.010315,312.000183 
	C538.010315,312.000183 538.000000,311.997559 538.265930,311.997009 
	C538.838928,311.831268 539.145996,311.666077 539.453064,311.500885 
	C539.453064,311.500885 539.308716,311.447449 539.683472,311.406586 
	C540.923157,310.940338 541.788086,310.514984 542.653015,310.089630 
	C542.653015,310.089630 542.824707,310.199280 543.320984,310.127380 
	C549.226379,310.130157 554.635498,310.204773 560.044617,310.279419 
	C560.044617,310.279419 560.168396,310.317505 560.457764,310.534363 
	C561.694092,311.044037 562.640991,311.336884 563.587891,311.629730 
	C563.587891,311.629730 564.013367,311.474426 564.017944,311.706482 
	C564.520935,312.156403 565.019348,312.374329 565.517761,312.592255 
	C565.517761,312.592255 565.649475,312.303589 565.800537,312.632263 
	C566.419312,313.173553 566.887024,313.386139 567.354736,313.598755 
	C567.354736,313.598755 567.462402,313.663849 567.789368,313.866577 
	C571.715759,316.436768 575.315247,318.804169 578.914673,321.171600 
z"/>
<path fill="#16184A" opacity="1.000000" stroke="none" 
	d="
M371.492981,426.794373 
	C391.406891,434.906555 412.062042,441.044312 433.516693,444.308533 
	C469.844055,449.835571 505.546936,448.787048 540.177246,433.567657 
	C537.431946,435.634460 534.605164,438.497803 531.181580,439.849945 
	C526.795715,441.582184 521.880554,441.926636 517.297058,443.232513 
	C515.738159,443.676666 514.493225,445.222412 512.611694,446.628784 
	C507.407593,447.327332 502.696564,447.661926 497.985565,447.996490 
	C473.612915,447.996490 449.240295,447.996490 424.867645,447.996490 
	C424.810486,447.813477 424.753357,447.630493 424.696198,447.447479 
	C427.066406,447.204742 429.436646,446.962006 431.806854,446.719269 
	C431.848999,446.310577 431.891144,445.901886 431.933289,445.493195 
	C418.669067,443.517365 405.404877,441.541534 392.049805,439.552185 
	C392.789246,439.169647 393.463226,438.820984 394.909607,438.072723 
	C391.452240,436.571289 388.596924,435.053284 385.566864,434.078033 
	C380.526733,432.455902 375.028107,431.888885 371.492981,426.794373 
z"/>
<path fill="#16184A" opacity="1.000000" stroke="none" 
	d="
M85.991096,435.418579 
	C110.977455,445.369446 137.000854,448.794586 163.663574,446.856842 
	C176.548126,445.920410 189.334595,443.633911 202.583969,442.245117 
	C203.005508,442.700287 203.008530,442.869049 203.011566,443.037781 
	C199.047485,444.045227 195.083389,445.052673 191.119308,446.060150 
	C191.066330,446.356720 191.013336,446.653259 190.960358,446.949829 
	C192.498535,447.439545 194.036728,447.929260 195.682831,448.453339 
	C165.476761,448.453339 135.360489,448.453339 105.244225,448.453339 
	C105.191605,448.143616 105.138992,447.833862 105.086372,447.524139 
	C106.247185,447.103424 107.407997,446.682678 108.568802,446.261963 
	C108.637878,445.740967 108.706947,445.219971 108.776024,444.698944 
	C103.641914,443.473328 98.558670,441.683411 93.356361,441.214478 
	C89.701561,440.885071 87.399223,439.923462 86.048927,436.096252 
	C85.919632,435.653320 85.991096,435.418579 85.991096,435.418579 
z"/>
<path fill="#13164C" opacity="1.000000" stroke="none" 
	d="
M316.191986,387.930359 
	C328.151855,399.169403 340.251038,410.221649 355.001923,417.847992 
	C358.972870,419.901031 362.867645,422.101379 366.906616,424.834656 
	C367.010986,425.622833 367.006104,425.810516 367.001221,425.998169 
	C366.043335,425.743011 365.015564,425.121948 364.138397,425.289398 
	C355.481201,426.942474 349.793579,421.711761 344.120697,416.651489 
	C340.366577,413.302704 337.123749,409.362274 333.255737,406.166260 
	C330.686981,404.043732 327.535065,401.733063 324.432587,401.383270 
	C320.796448,400.973328 319.202362,399.094391 317.099792,396.789612 
	C315.228912,394.738800 312.537842,393.436218 309.747955,391.480347 
	C310.635834,390.643433 311.978180,389.378143 313.730286,387.726562 
	C311.979645,387.161438 310.362549,386.639404 308.292542,385.728821 
	C307.764648,385.115387 307.689606,384.890472 307.614532,384.665527 
	C307.614532,384.665527 307.872192,384.918365 308.031921,384.736938 
	C308.451569,384.022095 308.711456,383.488678 308.971375,382.955292 
	C308.971375,382.955292 309.004425,382.993866 309.388916,382.991333 
	C310.860840,382.984406 311.948212,382.980011 313.035614,382.975586 
	C313.035614,382.975586 312.996521,382.995148 313.048706,383.285828 
	C313.518707,383.968353 313.936462,384.360138 314.354248,384.751953 
	C314.354248,384.751953 314.236664,384.779938 314.305206,384.990906 
	C314.643402,385.435425 314.913055,385.668976 315.182709,385.902527 
	C315.182709,385.902527 315.095093,385.911407 315.113770,386.189575 
	C315.485626,386.955292 315.838806,387.442841 316.191986,387.930359 
z"/>
<path fill="#13164C" opacity="1.000000" stroke="none" 
	d="
M562.938049,419.838745 
	C568.118103,414.705780 573.838745,410.007965 578.383057,404.363190 
	C596.416199,381.962921 599.244446,357.751068 586.132202,331.691345 
	C587.600159,332.950836 588.815857,334.499847 590.031494,336.048828 
	C591.684082,342.088135 593.336670,348.127411 595.010742,354.984863 
	C595.025940,360.548157 595.019653,365.293274 595.013428,370.038391 
	C593.533508,378.593262 592.053589,387.148132 590.611755,395.482727 
	C588.847351,396.706848 586.817505,397.642548 585.437561,399.166626 
	C582.112976,402.838226 576.769104,406.607849 576.459961,410.659973 
	C575.909790,417.869141 568.445740,418.197052 566.568848,423.570648 
	C566.177612,424.690826 562.197571,424.557617 559.599121,424.704468 
	C560.530579,422.884186 561.734314,421.361481 562.938049,419.838745 
z"/>
<path fill="#10134F" opacity="1.000000" stroke="none" 
	d="
M303.921783,315.026062 
	C302.677917,313.937256 301.434082,312.848419 299.942688,311.229431 
	C299.397522,310.499329 299.099854,310.299347 298.802185,310.099396 
	C298.802185,310.099396 298.918762,310.088074 298.784943,309.900970 
	C298.330231,309.548492 298.009369,309.383148 297.688477,309.217773 
	C297.688477,309.217773 297.790558,309.166443 297.857697,308.902344 
	C297.948639,308.420319 297.972443,308.202362 297.996277,307.984375 
	C299.108887,306.918884 300.221527,305.853394 301.464325,304.663239 
	C306.108521,313.776642 313.050293,314.882660 321.617310,308.211273 
	C320.907440,307.451721 320.216278,306.712189 319.240509,305.668091 
	C323.252502,303.845398 330.854034,307.440033 329.436005,299.105621 
	C336.514221,297.404327 343.390991,295.751434 350.673462,294.434967 
	C351.100891,295.027557 351.122681,295.283752 351.144470,295.539978 
	C336.513794,300.892151 323.333649,308.502655 312.850067,320.264893 
	C310.063507,323.391327 309.476654,319.964539 307.996033,318.105103 
	C306.558167,316.623779 305.239960,315.824921 303.921783,315.026062 
z"/>
<path fill="#13164C" opacity="1.000000" stroke="none" 
	d="
M273.600403,296.137665 
	C253.857452,290.167938 234.011963,290.226807 213.765656,296.466064 
	C216.186554,294.840851 218.997467,293.140961 222.070114,291.282806 
	C219.818726,291.052429 217.781525,290.843933 215.744308,290.635468 
	C215.754318,290.146393 215.764328,289.657349 215.774338,289.168274 
	C233.880737,289.168274 251.987122,289.168274 270.093506,289.168274 
	C270.175629,289.505127 270.257751,289.841980 270.339844,290.178833 
	C268.818756,290.643555 267.297668,291.108276 264.929108,291.831909 
	C268.181458,293.327911 270.845337,294.553223 273.600403,296.137665 
z"/>
<path fill="#0A0D3E" opacity="1.000000" stroke="none" 
	d="
M351.543396,295.447601 
	C351.122681,295.283752 351.100891,295.027557 351.041992,294.387512 
	C352.192474,293.552124 353.380035,293.100586 355.318726,292.363464 
	C353.626221,291.332184 352.631989,290.726349 350.558350,289.462830 
	C368.036621,289.462830 384.331329,289.462830 399.201324,289.462830 
	C401.008423,291.321716 401.959229,292.660095 403.234894,293.512115 
	C404.547485,294.388794 406.176819,294.791107 407.850677,295.718689 
	C397.458038,294.706421 386.902649,292.576416 376.299927,292.306549 
	C368.211853,292.100677 360.063751,294.252350 351.543396,295.447601 
z"/>
<path fill="#16184A" opacity="1.000000" stroke="none" 
	d="
M528.100586,321.549011 
	C531.400208,320.499023 534.761108,319.434753 538.195618,319.077393 
	C555.804932,317.245239 567.146667,333.445190 564.725464,350.613281 
	C563.720947,357.735901 559.942200,363.230927 553.434814,367.088745 
	C553.094543,365.335358 553.094543,363.513763 553.094543,362.578369 
	C555.246643,360.831665 557.118408,359.312500 559.369995,357.341309 
	C564.413391,352.368561 564.844299,338.807770 560.426453,334.393127 
	C560.124146,334.091003 559.499268,334.111694 559.024414,333.982239 
	C559.257141,330.832642 558.305542,328.831329 554.642151,328.920044 
	C553.630310,328.944550 551.915771,328.357422 551.678040,327.658356 
	C548.430664,318.110291 540.694763,321.516724 534.190125,321.472687 
	C532.192993,321.459167 530.194031,321.723633 528.100586,321.549011 
z"/>
<path fill="#13164C" opacity="1.000000" stroke="none" 
	d="
M269.846466,416.559113 
	C269.929047,416.233246 270.135803,416.040771 271.041901,415.976196 
	C272.412537,415.323608 273.208008,414.676483 274.003479,414.029358 
	C274.003479,414.029358 274.121582,413.796387 274.564453,413.751648 
	C275.315857,413.420349 275.624390,413.133789 275.932922,412.847229 
	C275.932922,412.847198 275.929260,412.930054 276.209656,412.900055 
	C276.932587,412.479156 277.375061,412.088226 277.817566,411.697327 
	C277.817566,411.697327 277.830902,411.795502 278.126221,411.813049 
	C279.284088,411.552460 280.146606,411.274353 281.009155,410.996277 
	C280.957947,414.208496 279.463745,416.149261 276.711243,418.091858 
	C271.078156,422.067352 266.037445,426.395599 258.248474,425.246246 
	C255.481842,424.838013 252.357773,426.851990 248.998413,427.627380 
	C253.634354,424.963959 258.668732,422.433350 264.407532,419.866882 
	C265.564148,419.375549 266.016388,418.920013 266.468628,418.464508 
	C266.468628,418.464508 266.538605,418.449646 266.914795,418.542450 
	C268.142792,417.943207 268.994629,417.251160 269.846466,416.559113 
z"/>
<path fill="#16184A" opacity="1.000000" stroke="none" 
	d="
M103.952606,365.337769 
	C94.403404,369.471619 84.236847,373.254639 73.532928,369.026001 
	C69.248634,367.333496 65.690628,363.802521 61.661903,360.805634 
	C64.308296,360.725952 67.094803,360.949005 69.836853,361.168518 
	C70.890892,366.405304 77.493263,369.804260 83.601097,368.630615 
	C90.220230,367.358734 96.888908,366.344696 103.952606,365.337769 
z"/>
<path fill="#16184A" opacity="1.000000" stroke="none" 
	d="
M38.749905,327.100769 
	C29.055946,342.518982 25.794146,359.297119 29.109354,377.688110 
	C28.066303,374.890991 27.190388,371.802155 26.158699,367.905365 
	C26.335258,362.731598 26.667591,358.365814 26.999924,354.000000 
	C28.338991,346.726959 29.604712,339.438873 31.092066,332.196289 
	C31.329411,331.040558 32.356976,329.765381 33.381226,329.119812 
	C34.870285,328.181274 36.688328,327.764709 38.749905,327.100769 
z"/>
<path fill="#0F1148" opacity="1.000000" stroke="none" 
	d="
M480.906189,341.784637 
	C474.640594,337.412964 468.363831,332.679932 462.074066,327.964233 
	C458.805237,325.513458 455.513428,323.093323 452.068970,320.355652 
	C454.918427,320.400269 457.945831,320.658600 460.933746,321.154663 
	C461.769562,321.293457 462.887848,321.963348 463.193054,322.680450 
	C464.543091,325.852570 466.051270,327.896301 469.692261,329.728760 
	C474.236725,332.015900 477.227875,337.389465 480.906189,341.784637 
z"/>
<path fill="#16184A" opacity="1.000000" stroke="none" 
	d="
M212.934875,296.346649 
	C202.949097,301.723846 192.518921,306.966400 181.765167,312.329285 
	C181.294296,306.083313 182.105209,305.400726 188.059311,304.928497 
	C192.993607,304.537170 197.411057,303.120239 200.481720,298.414734 
	C201.398605,297.009674 204.853378,297.195190 207.169540,296.790222 
	C208.923279,296.483643 210.715408,296.396698 212.934875,296.346649 
z"/>
<path fill="#16184A" opacity="1.000000" stroke="none" 
	d="
M552.734375,367.080200 
	C546.595459,371.420715 539.280884,371.607788 532.116333,369.866516 
	C525.349670,368.221954 518.861572,365.431000 512.071777,362.511292 
	C511.928131,361.587738 511.963776,361.297150 511.999390,361.006592 
	C515.216858,360.946503 517.429077,361.741943 520.253418,364.243134 
	C523.400757,367.030396 529.125061,367.533875 533.800659,367.814209 
	C539.931396,368.181732 546.133484,367.358459 552.734375,367.080200 
z"/>
<path fill="#0F1148" opacity="1.000000" stroke="none" 
	d="
M203.424149,443.027649 
	C203.008530,442.869049 203.005508,442.700287 203.004196,442.278442 
	C214.614761,438.574768 226.223602,435.124237 238.199677,431.591614 
	C236.361984,432.993134 234.300980,434.799957 231.909546,435.864532 
	C229.746719,436.827271 227.223038,436.979401 224.794876,438.579041 
	C226.649536,438.998535 228.504181,439.417999 231.084259,440.001556 
	C221.492661,441.063232 212.664703,442.040375 203.424149,443.027649 
z"/>
<path fill="#0F1148" opacity="1.000000" stroke="none" 
	d="
M48.027386,410.207764 
	C54.335003,414.965302 60.619637,420.117737 67.021599,425.592041 
	C64.198303,425.598511 61.240944,425.386169 58.326092,424.912323 
	C57.298252,424.745209 56.211002,424.114105 55.433838,423.390839 
	C53.147072,421.262604 50.627056,419.229004 48.941311,416.669098 
	C47.918015,415.115143 48.270157,412.655487 48.027386,410.207764 
z"/>
<path fill="#13164C" opacity="1.000000" stroke="none" 
	d="
M58.869606,336.573517 
	C58.869610,336.573517 58.763142,336.250031 59.197166,335.983521 
	C60.747303,335.475586 61.863419,335.234131 62.979530,334.992676 
	C62.763760,342.406647 62.547993,349.820587 61.888840,357.380920 
	C60.042049,353.025818 58.638649,348.524353 57.235245,344.022919 
	C57.223785,343.563660 57.212330,343.104370 57.669640,342.170898 
	C58.382137,339.988953 58.625870,338.281250 58.869606,336.573517 
z"/>
<path fill="#10134F" opacity="1.000000" stroke="none" 
	d="
M559.016296,334.452606 
	C559.499268,334.111694 560.124146,334.091003 560.426453,334.393127 
	C564.844299,338.807770 564.413391,352.368561 559.385986,356.951843 
	C559.017395,349.650604 559.012756,342.286774 559.016296,334.452606 
z"/>
<path fill="#10134F" opacity="1.000000" stroke="none" 
	d="
M26.623705,353.895630 
	C26.667591,358.365814 26.335258,362.731598 26.000824,367.552979 
	C25.428503,370.099121 24.858286,372.189697 24.288069,374.280273 
	C24.028086,374.254242 23.768101,374.228241 23.508118,374.202209 
	C23.508118,364.746460 23.508118,355.290710 23.508118,345.834961 
	C23.749758,345.813965 23.991396,345.792938 24.233036,345.771942 
	C24.904520,348.445038 25.576002,351.118164 26.623705,353.895630 
z"/>
<path fill="#0F1148" opacity="1.000000" stroke="none" 
	d="
M508.900879,360.779388 
	C499.668427,354.991699 490.420135,348.838776 481.015564,342.386169 
	C483.994232,343.647095 487.179657,345.115295 490.251129,346.792206 
	C493.910583,348.790070 497.655334,350.713470 501.020447,353.143707 
	C503.893646,355.218689 506.282135,357.964874 508.900879,360.779388 
z"/>
<path fill="#16184A" opacity="1.000000" stroke="none" 
	d="
M58.389492,311.289062 
	C51.343563,315.167969 44.661938,319.939636 39.384262,326.979553 
	C38.883007,323.755096 39.611698,321.236084 43.201809,319.545288 
	C45.106274,318.648407 46.122543,315.865540 48.025494,313.272095 
	C50.606266,312.727448 54.275925,311.952972 58.389492,311.289062 
z"/>
<path fill="#0F1148" opacity="1.000000" stroke="none" 
	d="
M595.371094,370.117249 
	C595.019653,365.293274 595.025940,360.548157 595.023438,355.381714 
	C596.327820,355.800201 598.724182,356.576263 598.778015,357.490234 
	C599.123108,363.349792 598.954163,369.239563 597.974365,375.321259 
	C597.225891,373.612885 596.477356,371.904480 595.371094,370.117249 
z"/>
<path fill="#16184A" opacity="1.000000" stroke="none" 
	d="
M29.937624,382.188019 
	C32.830872,386.888977 35.515045,391.855774 38.343956,397.130676 
	C34.582371,396.988281 30.705750,396.708099 30.756790,391.146545 
	C30.783352,388.252380 30.094332,385.351654 29.937624,382.188019 
z"/>
<path fill="#0F1148" opacity="1.000000" stroke="none" 
	d="
M542.975281,308.988190 
	C542.167786,307.717804 541.360229,306.447449 540.633789,305.304657 
	C547.110474,305.304657 553.936829,305.304657 561.100098,305.304657 
	C560.749939,306.337646 560.411377,307.336212 559.702759,308.668945 
	C558.890869,308.999969 558.449097,308.996887 557.966919,308.712219 
	C557.277832,308.289764 556.629211,308.148834 555.524292,308.006195 
	C551.037109,308.332367 547.006165,308.660278 542.975281,308.988190 
z"/>
<path fill="#0F1148" opacity="1.000000" stroke="none" 
	d="
M63.980194,308.968903 
	C62.173901,307.635834 60.367607,306.302765 58.608055,305.004211 
	C64.405869,305.004211 70.535919,304.841339 76.642548,305.146851 
	C77.810822,305.205322 78.886780,307.109222 79.632385,308.528809 
	C74.156281,306.810516 69.063660,306.931213 63.980194,308.968903 
z"/>
<path fill="#16184A" opacity="1.000000" stroke="none" 
	d="
M62.226143,329.940704 
	C67.830658,320.199005 77.011993,317.032684 90.423798,320.500916 
	C89.478973,320.858490 88.214058,320.933014 86.291458,320.774292 
	C85.080910,320.367737 84.528053,320.194427 83.975189,320.021118 
	C79.887985,320.914154 75.800774,321.807190 71.076920,323.004303 
	C68.625549,325.207214 66.810837,327.106049 64.996124,329.004883 
	C64.182312,329.315338 63.368500,329.625793 62.226143,329.940704 
z"/>
<path fill="#0F1148" opacity="1.000000" stroke="none" 
	d="
M291.870117,304.825012 
	C287.138885,302.850006 282.386139,300.519409 277.320526,297.800232 
	C277.007660,297.411652 277.010376,296.971710 277.010376,296.971710 
	C283.910248,295.604340 288.955414,297.907532 291.870117,304.825012 
z"/>
<path fill="#0F1148" opacity="1.000000" stroke="none" 
	d="
M304.048126,390.941559 
	C305.633698,398.351807 302.506714,401.871674 295.234802,399.818604 
	C294.652313,399.099304 294.550873,398.882202 294.449463,398.665100 
	C294.449463,398.665100 294.507721,398.583252 294.818787,398.550812 
	C295.347137,398.250702 295.564392,397.983002 295.781647,397.715332 
	C295.781647,397.715332 295.858185,397.853180 296.154846,397.831512 
	C298.207062,395.773987 299.962646,393.738129 301.718231,391.702271 
	C301.718231,391.702271 301.857971,391.880188 302.027893,391.735779 
	C302.366180,391.286255 302.534576,390.981079 302.702972,390.675903 
	C302.702972,390.675903 302.969452,390.988220 303.164490,390.925262 
	C303.589111,390.888733 303.818634,390.915161 304.048126,390.941559 
z"/>
<path fill="#0F1148" opacity="1.000000" stroke="none" 
	d="
M441.905609,312.780975 
	C437.030975,310.310547 432.137268,307.485931 427.042419,304.382294 
	C430.543427,304.518951 434.245514,304.934601 437.315887,305.279358 
	C438.997070,307.908325 440.441803,310.167542 441.905609,312.780975 
z"/>
<path fill="#0F1148" opacity="1.000000" stroke="none" 
	d="
M498.301819,448.268677 
	C502.696564,447.661926 507.407593,447.327332 512.552368,446.990356 
	C514.743042,447.064972 516.500061,447.141998 518.257019,447.218994 
	C518.263245,447.659607 518.269470,448.100220 518.275696,448.540833 
	C511.723175,448.540833 505.170624,448.540833 498.301819,448.268677 
z"/>
<path fill="#16184A" opacity="1.000000" stroke="none" 
	d="
M148.705841,336.059204 
	C145.276611,339.223083 141.420761,342.360535 137.120300,345.448761 
	C136.476227,345.202148 136.243454,345.058807 135.977386,344.969513 
	C138.002792,342.231476 139.693604,339.113678 142.191940,336.912384 
	C143.479675,335.777771 146.204025,336.273682 148.705841,336.059204 
z"/>
<path fill="#16184A" opacity="1.000000" stroke="none" 
	d="
M167.740509,321.099243 
	C165.007797,323.697662 161.882339,326.318024 158.437042,329.057068 
	C158.533920,326.619934 158.950607,324.064178 159.327637,321.751648 
	C162.275787,321.519897 164.811768,321.320557 167.740509,321.099243 
z"/>
<path fill="#16184A" opacity="1.000000" stroke="none" 
	d="
M63.681789,309.008118 
	C69.063660,306.931213 74.156281,306.810516 79.648575,308.946411 
	C80.899178,309.585968 81.760651,310.175049 82.709702,311.067993 
	C76.146912,310.970795 69.496544,310.569733 62.413883,310.119507 
	C62.448856,309.729340 62.916122,309.388336 63.681789,309.008118 
z"/>
<path fill="#0A0D3E" opacity="1.000000" stroke="none" 
	d="
M578.894165,320.824677 
	C575.315247,318.804169 571.715759,316.436768 567.850403,313.881744 
	C569.980469,313.378021 572.376526,313.061890 573.497192,312.914001 
	C575.707886,316.024109 577.290710,318.250946 578.894165,320.824677 
z"/>
<path fill="#0A0D3E" opacity="1.000000" stroke="none" 
	d="
M129.740784,350.052673 
	C126.703789,352.417389 123.280518,354.765869 119.490799,356.762878 
	C119.418961,355.279419 119.713554,354.147339 120.008148,353.015289 
	C123.123596,352.022339 126.239044,351.029388 129.740784,350.052673 
z"/>
<path fill="#0F1148" opacity="1.000000" stroke="none" 
	d="
M70.473145,427.824951 
	C74.254463,429.414032 78.001373,431.370178 81.967636,433.599976 
	C77.960930,432.620728 71.982292,434.991730 70.473145,427.824951 
z"/>
<path fill="#16184A" opacity="1.000000" stroke="none" 
	d="
M57.121784,344.447388 
	C58.638649,348.524353 60.042049,353.025818 61.719913,357.763031 
	C61.916016,358.544891 61.837662,359.091003 61.612614,360.025269 
	C59.980057,355.232941 58.494190,350.052429 57.121784,344.447388 
z"/>
<path fill="#16184A" opacity="1.000000" stroke="none" 
	d="
M541.016846,433.577667 
	C543.819824,431.652191 547.035339,429.874786 550.580444,427.974609 
	C550.702942,434.576202 545.274902,432.873718 541.016846,433.577667 
z"/>
<path fill="#16184A" opacity="1.000000" stroke="none" 
	d="
M157.763489,329.085205 
	C155.361633,331.397614 152.548737,333.671814 149.405304,336.036652 
	C150.626755,332.355774 152.087723,328.477844 157.763489,329.085205 
z"/>
<path fill="#10134F" opacity="1.000000" stroke="none" 
	d="
M103.993904,363.998779 
	C101.252563,363.427856 98.511230,362.856903 95.769890,362.285980 
	C95.763794,361.860992 95.757706,361.435974 95.751610,361.010986 
	C99.200447,361.010986 102.649292,361.010986 106.552658,361.355469 
	C107.033363,362.375031 107.059532,363.050140 106.704636,363.806519 
	C105.547005,363.924805 104.770454,363.961792 103.993904,363.998779 
z"/>
<path fill="#0A0D3E" opacity="1.000000" stroke="none" 
	d="
M558.007324,308.993774 
	C558.449097,308.996887 558.890869,308.999969 559.663879,309.003357 
	C560.000793,309.216370 560.006531,309.429077 560.028442,309.960571 
	C554.635498,310.204773 549.226379,310.130157 543.392456,310.054810 
	C542.965515,309.876526 542.963257,309.698883 542.968140,309.254700 
	C547.006165,308.660278 551.037109,308.332367 555.710144,308.237366 
	C556.903992,308.644775 557.455627,308.819275 558.007324,308.993774 
z"/>
<path fill="#16184A" opacity="1.000000" stroke="none" 
	d="
M282.319641,408.962097 
	C284.347473,406.974457 286.795898,405.007812 289.568237,402.933746 
	C289.016357,406.630524 287.659058,409.875397 282.319641,408.962097 
z"/>
<path fill="#0F1148" opacity="1.000000" stroke="none" 
	d="
M590.280396,335.757385 
	C588.815857,334.499847 587.600159,332.950836 586.058105,331.336090 
	C585.731628,331.270325 585.766968,331.256287 585.838867,330.945404 
	C585.938232,330.419434 585.965637,330.204376 585.992981,329.989380 
	C587.449890,329.833435 588.906799,329.677490 590.947144,329.459137 
	C590.795593,331.638214 590.662476,333.552063 590.280396,335.757385 
z"/>
<path fill="#13164C" opacity="1.000000" stroke="none" 
	d="
M65.424133,329.003448 
	C66.810837,327.106049 68.625549,325.207214 70.740891,323.171814 
	C71.333817,326.782776 70.986603,329.974152 65.424133,329.003448 
z"/>
<path fill="#16184A" opacity="1.000000" stroke="none" 
	d="
M179.758057,313.084961 
	C178.003494,314.702667 175.831985,316.283447 173.325989,317.929535 
	C173.343933,316.442078 173.696335,314.889313 174.114243,313.048004 
	C175.822220,313.048004 177.581650,313.048004 179.758057,313.084961 
z"/>
<path fill="#10134F" opacity="1.000000" stroke="none" 
	d="
M119.592468,353.009888 
	C119.713554,354.147339 119.418961,355.279419 119.120041,356.764038 
	C119.115723,357.116577 119.084694,357.056854 118.758636,357.083435 
	C117.292511,357.410583 116.152443,357.711182 115.012375,358.011780 
	C114.722580,354.947205 115.059341,352.403717 119.592468,353.009888 
z"/>
<path fill="#10134F" opacity="1.000000" stroke="none" 
	d="
M416.994751,297.016479 
	C418.455078,297.016785 420.093781,296.613281 421.315918,297.152985 
	C422.197205,297.542236 422.523956,299.187103 422.707428,300.481018 
	C421.091949,300.600861 419.867126,300.511566 418.642273,300.422272 
	C418.642273,300.422272 418.863403,300.260468 418.715515,300.040283 
	C418.043304,298.885559 417.519043,297.951019 416.994751,297.016479 
z"/>
<path fill="#16184A" opacity="1.000000" stroke="none" 
	d="
M38.455402,397.948059 
	C40.052502,399.785492 41.529839,402.008575 43.076843,404.572784 
	C38.711819,404.790344 38.802925,401.357910 38.455402,397.948059 
z"/>
<path fill="#16184A" opacity="1.000000" stroke="none" 
	d="
M562.609680,419.938629 
	C561.734314,421.361481 560.530579,422.884186 559.161621,424.702789 
	C558.996399,424.998688 558.528259,425.038055 557.957275,425.166779 
	C556.475464,425.408722 555.564636,425.521912 554.653870,425.635101 
	C557.196350,423.769562 559.738831,421.904022 562.609680,419.938629 
z"/>
<path fill="#0F1148" opacity="1.000000" stroke="none" 
	d="
M447.924561,316.753387 
	C445.994019,316.003296 444.093048,314.836426 442.027161,313.377869 
	C444.259613,313.482269 448.012238,311.338348 447.924561,316.753387 
z"/>
<path fill="#16184A" opacity="1.000000" stroke="none" 
	d="
M62.977402,334.618042 
	C61.863419,335.234131 60.747303,335.475586 59.313797,335.859497 
	C59.784908,334.095795 60.573418,332.189606 61.645355,330.088806 
	C62.277615,331.343933 62.626442,332.793640 62.977402,334.618042 
z"/>
<path fill="#16184A" opacity="1.000000" stroke="none" 
	d="
M533.863831,314.161133 
	C532.548706,315.841431 530.835999,317.461151 528.870728,319.269714 
	C528.375732,315.990967 529.777832,314.011383 533.863831,314.161133 
z"/>
<path fill="#0F1148" opacity="1.000000" stroke="none" 
	d="
M416.553650,297.011841 
	C417.519043,297.951019 418.043304,298.885559 418.625793,300.143829 
	C416.208923,299.541016 413.733887,298.614441 411.026245,297.417419 
	C412.566620,297.100372 414.339569,297.053772 416.553650,297.011841 
z"/>
<path fill="#13164C" opacity="1.000000" stroke="none" 
	d="
M94.157829,321.582153 
	C93.712311,320.133667 93.327293,318.938202 92.762634,317.376343 
	C95.973167,317.540497 96.978867,319.174988 94.964241,322.184784 
	C94.915268,322.257935 94.647408,322.250061 94.524910,322.190674 
	C94.395668,322.127991 94.318336,321.958221 94.157829,321.582153 
z"/>
<path fill="#0A0D3E" opacity="1.000000" stroke="none" 
	d="
M107.085709,363.725220 
	C107.059532,363.050140 107.033363,362.375031 107.013039,361.362701 
	C108.776268,361.033813 110.533653,361.042175 112.732521,361.077576 
	C111.587189,362.018433 110.000374,362.932220 107.907280,363.832520 
	C107.401001,363.819031 107.085701,363.725220 107.085709,363.725220 
z"/>
<path fill="#0F1148" opacity="1.000000" stroke="none" 
	d="
M239.033325,431.667603 
	C240.206100,430.837585 241.798691,430.134827 243.844147,429.592102 
	C244.540100,430.173248 244.783188,430.594269 245.026260,431.015320 
	C243.168549,431.275177 241.310852,431.535004 239.033325,431.667603 
z"/>
<path fill="#0A0D3E" opacity="1.000000" stroke="none" 
	d="
M135.636383,345.027100 
	C136.243454,345.058807 136.476227,345.202148 136.811005,345.555084 
	C135.531662,346.789978 134.117020,347.869324 132.379395,349.032715 
	C133.136078,347.772736 134.215729,346.428711 135.636383,345.027100 
z"/>
<path fill="#0F1148" opacity="1.000000" stroke="none" 
	d="
M418.894043,300.654114 
	C419.867126,300.511566 421.091949,300.600861 422.665771,300.840454 
	C423.568604,301.550293 424.122467,302.109802 424.800781,302.939270 
	C422.998779,302.434814 421.072327,301.660370 418.894043,300.654114 
z"/>
<path fill="#13164C" opacity="1.000000" stroke="none" 
	d="
M245.353638,430.944946 
	C244.783188,430.594269 244.540100,430.173248 244.170105,429.544250 
	C245.338104,428.781311 246.633011,428.226288 248.265533,427.569000 
	C247.629105,428.602661 246.655060,429.738647 245.353638,430.944946 
z"/>
<path fill="#10134F" opacity="1.000000" stroke="none" 
	d="
M23.499271,377.836304 
	C24.111609,378.418915 24.514294,379.216370 24.916981,380.013824 
	C24.498903,380.140259 24.080826,380.266693 23.662750,380.393127 
	C23.538374,379.612457 23.413996,378.831787 23.499271,377.836304 
z"/>
<path fill="#13164C" opacity="1.000000" stroke="none" 
	d="
M554.656738,425.647461 
	C555.564636,425.521912 556.475464,425.408722 557.722900,425.182373 
	C557.187256,425.874878 556.314941,426.680542 555.150146,426.905365 
	C554.783936,426.100403 554.710327,425.876221 554.636719,425.652069 
	C554.636719,425.652069 554.659546,425.659821 554.656738,425.647461 
z"/>
<path fill="#0A0D3E" opacity="1.000000" stroke="none" 
	d="
M115.005531,358.353882 
	C116.152443,357.711182 117.292511,357.410583 118.787979,357.099792 
	C117.990349,358.018066 116.837326,358.946564 115.356277,359.969727 
	C115.018394,359.608276 115.008537,359.152130 115.005531,358.353882 
z"/>
<path fill="#0F1148" opacity="1.000000" stroke="none" 
	d="
M43.095985,405.222229 
	C44.046593,405.662048 45.013073,406.460846 46.095520,407.558807 
	C45.178276,407.099030 44.145065,406.340088 43.095985,405.222229 
z"/>
<path fill="#0F1148" opacity="1.000000" stroke="none" 
	d="
M85.682777,435.243469 
	C85.991096,435.418579 85.919632,435.653320 85.869415,435.764587 
	C84.602577,435.428345 83.385948,434.980835 82.134521,434.175354 
	C83.191299,434.234375 84.282875,434.651367 85.682777,435.243469 
z"/>
<path fill="#0A0D3E" opacity="1.000000" stroke="none" 
	d="
M405.775635,289.270660 
	C405.938385,289.799133 405.830933,290.268280 405.723480,290.737396 
	C405.341919,290.528381 404.960358,290.319397 404.578796,290.110382 
	C404.887665,289.810669 405.196533,289.510986 405.775635,289.270660 
z"/>
<path fill="#13164C" opacity="1.000000" stroke="none" 
	d="
M584.900269,329.787323 
	C583.973633,328.983643 583.044006,327.819336 581.998901,326.346008 
	C582.888000,327.166870 583.892700,328.296783 584.900269,329.787323 
z"/>
<path fill="#13164C" opacity="1.000000" stroke="none" 
	d="
M276.745544,296.719666 
	C277.010376,296.971710 277.007660,297.411652 277.005859,297.631622 
	C276.030945,297.520844 275.057770,297.190094 273.856689,296.644531 
	C274.579376,296.442352 275.530029,296.454956 276.745544,296.719666 
z"/>
<path fill="#16184A" opacity="1.000000" stroke="none" 
	d="
M172.643982,318.005066 
	C172.210052,318.639679 171.423538,319.287354 170.335327,320.004456 
	C170.786209,319.388672 171.538788,318.703400 172.643982,318.005066 
z"/>
<path fill="#0F1148" opacity="1.000000" stroke="none" 
	d="
M535.663879,305.591553 
	C536.003967,305.743652 536.189148,306.042450 536.374390,306.341248 
	C536.085938,306.140228 535.797485,305.939240 535.663879,305.591553 
z"/>
<path fill="#16184A" opacity="1.000000" stroke="none" 
	d="
M280.966431,410.681091 
	C280.146606,411.274353 279.284088,411.552460 278.080383,411.794281 
	C278.547668,411.113953 279.356140,410.469879 280.482880,409.783813 
	C280.842010,409.949829 280.882843,410.157898 280.966431,410.681091 
z"/>
<path fill="#16184A" opacity="1.000000" stroke="none" 
	d="
M307.360474,384.821625 
	C307.689606,384.890472 307.764648,385.115387 307.926941,385.685455 
	C307.500061,386.333313 306.985901,386.636047 306.161743,386.951355 
	C306.269989,386.301849 306.688202,385.639801 307.360474,384.821625 
z"/>
<path fill="#0F1148" opacity="1.000000" stroke="none" 
	d="
M451.901184,319.740662 
	C451.285248,319.703979 450.612915,319.317871 449.754700,318.701874 
	C450.327515,318.778381 451.086182,319.084778 451.901184,319.740662 
z"/>
<path fill="#16184A" opacity="1.000000" stroke="none" 
	d="
M106.704628,363.806519 
	C107.085701,363.725220 107.401001,363.819031 107.558632,363.865997 
	C106.831963,364.381317 105.947655,364.849640 104.765640,365.383026 
	C104.377060,365.210449 104.286179,364.972778 104.094604,364.366943 
	C104.770454,363.961792 105.547005,363.924805 106.704628,363.806519 
z"/>
<path fill="#0A0D3E" opacity="1.000000" stroke="none" 
	d="
M563.469482,311.237732 
	C562.640991,311.336884 561.694092,311.044037 560.491821,310.479248 
	C561.274658,310.420105 562.312805,310.632904 563.469482,311.237732 
z"/>
<path fill="#0A0D3E" opacity="1.000000" stroke="none" 
	d="
M542.236694,310.091003 
	C541.788086,310.514984 540.923157,310.940338 539.705688,311.480255 
	C540.175598,311.093994 540.997986,310.593201 542.236694,310.091003 
z"/>
<path fill="#0F1148" opacity="1.000000" stroke="none" 
	d="
M511.607422,361.000977 
	C511.963776,361.297150 511.928131,361.587738 511.806702,362.309509 
	C510.894928,362.379608 510.069000,362.018494 509.052124,361.376678 
	C509.645935,361.062439 510.430695,361.028900 511.607422,361.000977 
z"/>
<path fill="#16184A" opacity="1.000000" stroke="none" 
	d="
M367.385193,426.000549 
	C367.006104,425.810516 367.010986,425.622833 367.031952,425.154053 
	C367.913147,425.063232 368.778229,425.253510 369.859406,425.699524 
	C369.306702,425.971191 368.537903,425.987091 367.385193,426.000549 
z"/>
<path fill="#16184A" opacity="1.000000" stroke="none" 
	d="
M86.921387,313.495605 
	C86.328644,313.474487 85.651512,313.139587 84.825241,312.555145 
	C85.396393,312.597687 86.116692,312.889771 86.921387,313.495605 
z"/>
<path fill="#0F1148" opacity="1.000000" stroke="none" 
	d="
M297.670044,307.988953 
	C297.972443,308.202362 297.948639,308.420319 297.841095,308.957031 
	C297.280182,309.004822 296.802979,308.733856 296.182495,308.221558 
	C296.474091,307.984680 296.908966,307.989105 297.670044,307.988953 
z"/>
<path fill="#0F1148" opacity="1.000000" stroke="none" 
	d="
M67.219833,426.101990 
	C67.656418,425.983459 68.271568,426.136871 69.056870,426.560242 
	C68.617462,426.678101 68.007927,426.526031 67.219833,426.101990 
z"/>
<path fill="#16184A" opacity="1.000000" stroke="none" 
	d="
M554.349487,425.721069 
	C554.710327,425.876221 554.783936,426.100403 554.917480,426.673645 
	C554.487854,427.007751 553.998230,426.992706 553.141357,426.952759 
	C553.203491,426.548584 553.632874,426.169342 554.349487,425.721069 
z"/>
<path fill="#0F1148" opacity="1.000000" stroke="none" 
	d="
M293.609680,306.152710 
	C293.161346,306.194733 292.634521,305.918488 291.961823,305.382385 
	C292.387695,305.359833 292.959442,305.597168 293.609680,306.152710 
z"/>
<path fill="#0F1148" opacity="1.000000" stroke="none" 
	d="
M426.772797,303.896820 
	C426.354279,303.990173 425.761902,303.815521 424.985138,303.388824 
	C425.400146,303.300781 425.999542,303.464813 426.772797,303.896820 
z"/>
<path fill="#16184A" opacity="1.000000" stroke="none" 
	d="
M84.654602,312.088135 
	C84.206223,312.191772 83.636810,311.981842 82.882156,311.531250 
	C83.309143,311.451904 83.921364,311.613220 84.654602,312.088135 
z"/>
<path fill="#13164C" opacity="1.000000" stroke="none" 
	d="
M84.163261,320.247803 
	C84.528053,320.194427 85.080910,320.367737 85.819031,320.771179 
	C85.453308,320.825745 84.902321,320.650146 84.163261,320.247803 
z"/>
<path fill="#16184A" opacity="1.000000" stroke="none" 
	d="
M169.767487,320.063293 
	C169.600464,320.365021 169.122986,320.690430 168.342255,321.087158 
	C168.511688,320.801331 168.984360,320.444153 169.767487,320.063293 
z"/>
<path fill="#0F1148" opacity="1.000000" stroke="none" 
	d="
M449.561340,318.188721 
	C449.109650,318.218231 448.602173,317.925873 447.959503,317.373474 
	C448.384705,317.364594 448.945129,317.615723 449.561340,318.188721 
z"/>
<path fill="#0A0D3E" opacity="1.000000" stroke="none" 
	d="
M410.734497,296.923767 
	C410.251678,297.033447 409.537262,296.846191 408.580750,296.375732 
	C409.060089,296.270660 409.781464,296.448730 410.734497,296.923767 
z"/>
<path fill="#16184A" opacity="1.000000" stroke="none" 
	d="
M535.813477,313.097900 
	C535.674255,313.446777 535.213867,313.811218 534.454407,314.242310 
	C534.601013,313.910431 535.046692,313.511932 535.813477,313.097900 
z"/>
<path fill="#0A0D3E" opacity="1.000000" stroke="none" 
	d="
M567.350281,313.259827 
	C566.887024,313.386139 566.419312,313.173553 565.762512,312.786285 
	C566.164246,312.714722 566.755005,312.817810 567.350281,313.259827 
z"/>
<path fill="#0A0D3E" opacity="1.000000" stroke="none" 
	d="
M537.716553,312.065063 
	C537.541931,312.342255 537.073547,312.684326 536.311768,313.074890 
	C536.486511,312.792236 536.954651,312.461090 537.716553,312.065063 
z"/>
<path fill="#0A0D3E" opacity="1.000000" stroke="none" 
	d="
M131.808090,349.086090 
	C131.626709,349.375458 131.129425,349.688202 130.326294,350.078369 
	C130.511032,349.807037 131.001602,349.458252 131.808090,349.086090 
z"/>
<path fill="#0F1148" opacity="1.000000" stroke="none" 
	d="
M598.423706,349.785645 
	C598.460632,349.763062 598.386658,349.808289 598.423706,349.785645 
z"/>
<path fill="#0A0D3E" opacity="1.000000" stroke="none" 
	d="
M565.463196,312.252441 
	C565.019348,312.374329 564.520935,312.156403 563.804077,311.773804 
	C564.193359,311.710297 564.800964,311.811462 565.463196,312.252441 
z"/>
<path fill="#0A0D3E" opacity="1.000000" stroke="none" 
	d="
M114.771835,360.079651 
	C114.603409,360.387939 114.126366,360.742279 113.345108,361.140076 
	C113.514999,360.830902 113.989105,360.478302 114.771835,360.079651 
z"/>
<path fill="#16184A" opacity="1.000000" stroke="none" 
	d="
M60.996178,310.139282 
	C60.778473,310.526428 60.175056,310.927063 59.197830,311.407043 
	C59.419506,311.041840 60.014988,310.597290 60.996178,310.139282 
z"/>
<path fill="#16184A" opacity="1.000000" stroke="none" 
	d="
M304.033905,390.594421 
	C303.818634,390.915161 303.589111,390.888733 303.024078,390.775391 
	C302.907257,390.152161 303.125946,389.615814 303.620667,388.970398 
	C303.937683,389.323273 303.978699,389.785278 304.033905,390.594421 
z"/>
<path fill="#0F1148" opacity="1.000000" stroke="none" 
	d="
M69.254181,426.989349 
	C69.441414,426.850403 69.773537,426.954956 70.283875,427.255188 
	C70.107742,427.378204 69.753403,427.305542 69.254181,426.989349 
z"/>
<path fill="#13164C" opacity="1.000000" stroke="none" 
	d="
M91.039536,320.962097 
	C91.143623,320.781982 91.326469,320.772186 91.747620,320.898712 
	C91.696724,321.067444 91.407501,321.099884 91.039536,320.962097 
z"/>
<path fill="#16184A" opacity="1.000000" stroke="none" 
	d="
M304.085083,388.829193 
	C304.034515,388.628052 304.231812,388.320129 304.701141,387.943970 
	C304.759796,388.157990 304.546387,388.440216 304.085083,388.829193 
z"/>
<path fill="#13164C" opacity="1.000000" stroke="none" 
	d="
M585.707397,330.007812 
	C585.965637,330.204376 585.938232,330.419434 585.820251,330.947327 
	C585.490601,331.038025 585.251526,330.815857 584.933594,330.349426 
	C585.043823,330.078857 585.232788,330.052551 585.707397,330.007812 
z"/>
<path fill="#13164C" opacity="1.000000" stroke="none" 
	d="
M247.482635,432.471558 
	C247.518051,432.454010 247.447205,432.489136 247.482635,432.471558 
z"/>
<path fill="#16184A" opacity="1.000000" stroke="none" 
	d="
M294.271088,398.705658 
	C294.550873,398.882202 294.652313,399.099304 294.867310,399.657196 
	C294.753265,399.904816 294.525665,399.811615 293.986084,399.521362 
	C293.725433,399.067749 293.864960,398.875061 294.271088,398.705658 
z"/>
<path fill="#0F1148" opacity="1.000000" stroke="none" 
	d="
M292.187378,400.984741 
	C292.090240,400.660187 292.269165,400.347290 292.728210,400.243469 
	C293.010712,400.626495 293.013092,400.800446 293.015472,400.974426 
	C292.831421,400.981750 292.647400,400.989075 292.187378,400.984741 
z"/>
<path fill="#16184A" opacity="1.000000" stroke="none" 
	d="
M293.203064,400.790802 
	C293.013092,400.800446 293.010712,400.626495 293.004333,400.191589 
	C293.000305,399.930634 293.089020,399.657013 293.229370,399.624512 
	C293.376678,399.930389 293.383667,400.268768 293.203064,400.790802 
z"/>
<path fill="#0F1148" opacity="1.000000" stroke="none" 
	d="
M294.775513,306.965942 
	C294.573975,307.085022 294.227356,306.958618 293.731506,306.594299 
	C293.931702,306.477753 294.281067,306.599091 294.775513,306.965942 
z"/>
<path fill="#16184A" opacity="1.000000" stroke="none" 
	d="
M551.084717,427.848145 
	C551.051636,427.625671 551.253601,427.325043 551.735718,427.054504 
	C551.858582,427.388947 551.626526,427.617432 551.084717,427.848145 
z"/>
<path fill="#16184A" opacity="1.000000" stroke="none" 
	d="
M181.143494,312.437317 
	C181.152939,312.658722 180.880341,312.880249 180.340210,313.147461 
	C180.335617,312.941193 180.598541,312.689331 181.143494,312.437317 
z"/>
<path fill="#16184A" opacity="1.000000" stroke="none" 
	d="
M370.196289,426.137451 
	C370.359711,425.982422 370.697479,426.036499 371.225555,426.268860 
	C371.067444,426.413635 370.719025,426.380096 370.196289,426.137451 
z"/>
<path fill="#16184A" opacity="1.000000" stroke="none" 
	d="
M290.053101,402.816711 
	C290.018738,402.628571 290.233795,402.342010 290.716919,401.984375 
	C290.757507,402.181610 290.529999,402.449921 290.053101,402.816711 
z"/>
<path fill="#16184A" opacity="1.000000" stroke="none" 
	d="
M528.238525,319.597778 
	C528.367737,319.693054 528.266541,319.966187 528.121216,319.966949 
	C527.975891,319.967712 527.783691,319.593231 527.783691,319.593231 
	C527.783691,319.593231 528.109253,319.502472 528.238525,319.597778 
z"/>
<path fill="#0A0D3E" opacity="1.000000" stroke="none" 
	d="
M539.177856,311.468109 
	C539.145996,311.666077 538.838928,311.831268 538.264526,312.001160 
	C538.299011,311.815674 538.600830,311.625488 539.177856,311.468109 
z"/>
<path fill="#0F1148" opacity="1.000000" stroke="none" 
	d="
M46.213947,408.019470 
	C46.408867,407.972595 46.718910,408.184082 47.126770,408.667328 
	C46.926079,408.718658 46.627575,408.498260 46.213947,408.019470 
z"/>
<path fill="#16184A" opacity="1.000000" stroke="none" 
	d="
M280.979187,409.753510 
	C280.951447,409.553070 281.187927,409.281036 281.698517,408.950806 
	C281.729553,409.155731 281.486481,409.418823 280.979187,409.753510 
z"/>
<path fill="#0F1148" opacity="1.000000" stroke="none" 
	d="
M295.853333,307.761719 
	C295.681976,307.839203 295.352600,307.713440 294.901855,307.342987 
	C295.085449,307.251648 295.390350,307.405060 295.853333,307.761719 
z"/>
<path fill="#16184A" opacity="1.000000" stroke="none" 
	d="
M301.416290,391.834534 
	C299.962646,393.738129 298.207062,395.773987 296.090118,397.786499 
	C297.523956,395.831024 299.319153,393.898926 301.416290,391.834534 
z"/>
<path fill="#16184A" opacity="1.000000" stroke="none" 
	d="
M312.971924,382.668213 
	C311.948212,382.980011 310.860840,382.984406 309.365692,382.981628 
	C309.954315,380.707184 311.031891,378.962708 312.971924,382.668213 
z"/>
<path fill="#0F1148" opacity="1.000000" stroke="none" 
	d="
M304.055725,315.333191 
	C305.239960,315.824921 306.558167,316.623779 307.905212,317.788879 
	C306.685913,317.316864 305.437775,316.478577 304.055725,315.333191 
z"/>
<path fill="#16184A" opacity="1.000000" stroke="none" 
	d="
M58.611702,336.830322 
	C58.625870,338.281250 58.382137,339.988953 57.808350,341.852417 
	C57.770130,340.367828 58.061966,338.727448 58.611702,336.830322 
z"/>
<path fill="#16184A" opacity="1.000000" stroke="none" 
	d="
M269.544037,416.651215 
	C268.994629,417.251160 268.142792,417.943207 266.937012,418.514435 
	C267.469269,417.843506 268.355438,417.293396 269.544037,416.651215 
z"/>
<path fill="#16184A" opacity="1.000000" stroke="none" 
	d="
M273.693237,414.072327 
	C273.208008,414.676483 272.412537,415.323608 271.264404,415.969330 
	C271.735474,415.350372 272.559235,414.732819 273.693237,414.072327 
z"/>
<path fill="#16184A" opacity="1.000000" stroke="none" 
	d="
M316.123840,387.622925 
	C315.838806,387.442841 315.485626,386.955292 315.129944,386.148621 
	C315.436890,386.324860 315.746307,386.820190 316.123840,387.622925 
z"/>
<path fill="#16184A" opacity="1.000000" stroke="none" 
	d="
M277.522034,411.754578 
	C277.375061,412.088226 276.932587,412.479156 276.172424,412.881805 
	C276.312042,412.532959 276.769287,412.172394 277.522034,411.754578 
z"/>
<path fill="#16184A" opacity="1.000000" stroke="none" 
	d="
M266.176880,418.592499 
	C266.016388,418.920013 265.564148,419.375549 264.745575,419.828186 
	C264.881165,419.457031 265.383118,419.088745 266.176880,418.592499 
z"/>
<path fill="#16184A" opacity="1.000000" stroke="none" 
	d="
M308.714294,383.087097 
	C308.711456,383.488678 308.451569,384.022095 307.888977,384.626770 
	C307.876556,384.204987 308.166870,383.711945 308.714294,383.087097 
z"/>
<path fill="#16184A" opacity="1.000000" stroke="none" 
	d="
M314.272522,384.473694 
	C313.936462,384.360138 313.518707,383.968353 313.063965,383.269348 
	C313.414948,383.373260 313.802856,383.784332 314.272522,384.473694 
z"/>
<path fill="#0F1148" opacity="1.000000" stroke="none" 
	d="
M297.806274,309.469421 
	C298.009369,309.383148 298.330231,309.548492 298.779694,309.959290 
	C298.580200,310.043549 298.252136,309.882324 297.806274,309.469421 
z"/>
<path fill="#16184A" opacity="1.000000" stroke="none" 
	d="
M295.533051,397.767578 
	C295.564392,397.983002 295.347137,398.250702 294.859558,398.521423 
	C294.820984,398.289612 295.052704,398.054718 295.533051,397.767578 
z"/>
<path fill="#16184A" opacity="1.000000" stroke="none" 
	d="
M315.126831,385.632568 
	C314.913055,385.668976 314.643402,385.435425 314.320679,384.932495 
	C314.535370,384.896240 314.803162,385.129425 315.126831,385.632568 
z"/>
<path fill="#16184A" opacity="1.000000" stroke="none" 
	d="
M302.453674,390.765076 
	C302.534576,390.981079 302.366180,391.286255 301.937592,391.667633 
	C301.853058,391.447327 302.028717,391.150787 302.453674,390.765076 
z"/>
<path fill="#0F1148" opacity="1.000000" stroke="none" 
	d="
M298.896851,310.365417 
	C299.099854,310.299347 299.397522,310.499329 299.819031,310.942444 
	C299.625763,311.000885 299.308655,310.816162 298.896851,310.365417 
z"/>
<path fill="#16184A" opacity="1.000000" stroke="none" 
	d="
M275.613708,412.908142 
	C275.624390,413.133789 275.315857,413.420349 274.692322,413.778076 
	C274.683044,413.555847 274.988770,413.262451 275.613708,412.908142 
z"/>
<path fill="#11165F" opacity="1.000000" stroke="none" 
	d="
M557.966919,308.712219 
	C557.455627,308.819275 556.903992,308.644775 556.166443,308.239105 
	C556.629211,308.148834 557.277832,308.289764 557.966919,308.712219 
z"/>
</svg>